<svg width="50" height="50" viewBox="0 0 50 50" fill="none" xmlns="http://www.w3.org/2000/svg">
<path d="M25 0.78125C14.2305 0.78125 5.46875 9.54297 5.46875 20.3125C5.46875 24.792 8.68262 30.9961 15.0195 38.7529C17.9733 42.344 21.126 45.7667 24.4629 49.0049C24.608 49.1423 24.8002 49.2188 25 49.2188C25.1998 49.2188 25.392 49.1423 25.5371 49.0049C28.874 45.7667 32.0267 42.344 34.9805 38.7529C41.3174 30.9961 44.5312 24.792 44.5312 20.3125C44.5312 9.54297 35.7695 0.78125 25 0.78125ZM25 49.2188C21.9551 46.2295 5.46875 29.252 5.46875 20.3125C5.46875 29.248 25 49.2188 25 49.2188Z" fill="#D9D9D9"/>
<path d="M25 6.25C17.2461 6.25 10.9375 12.5586 10.9375 20.3125C10.9375 28.0664 17.2461 34.375 25 34.375C32.7539 34.375 39.0625 28.0664 39.0625 20.3125C39.0625 12.5586 32.7539 6.25 25 6.25ZM25 32.8125C22.5277 32.8125 20.111 32.0794 18.0554 30.7059C15.9998 29.3324 14.3976 27.3801 13.4515 25.096C12.5054 22.812 12.2579 20.2986 12.7402 17.8739C13.2225 15.4491 14.413 13.2218 16.1612 11.4737C17.9093 9.72551 20.1366 8.535 22.5614 8.05268C24.9861 7.57037 27.4995 7.81791 29.7835 8.76401C32.0676 9.7101 34.0199 11.3123 35.3934 13.3679C36.7669 15.4235 37.5 17.8402 37.5 20.3125C37.4963 23.6266 36.1781 26.8038 33.8347 29.1472C31.4913 31.4906 28.3141 32.8088 25 32.8125Z" fill="#002557"/>
<path d="M25 32.8125C22.5277 32.8125 20.111 32.0794 18.0554 30.7059C15.9998 29.3324 14.3976 27.3801 13.4515 25.096C12.5054 22.812 12.2579 20.2986 12.7402 17.8739C13.2225 15.4491 14.413 13.2218 16.1612 11.4737C17.9093 9.72551 20.1366 8.535 22.5614 8.05268C24.9861 7.57037 27.4995 7.81791 29.7835 8.76401C32.0676 9.7101 34.0199 11.3123 35.3934 13.3679C36.7669 15.4235 37.5 17.8402 37.5 20.3125C37.4963 23.6266 36.1781 26.8038 33.8347 29.1472C31.4913 31.4906 28.3141 32.8088 25 32.8125Z" fill="#D9D9D9"/>
<path d="M25 0.78125C14.2305 0.78125 5.46875 9.54297 5.46875 20.3125C5.46875 24.792 8.68262 30.9961 15.0195 38.7529C17.9733 42.344 21.126 45.7667 24.4629 49.0049C24.608 49.1423 24.8002 49.2188 25 49.2188C25.1998 49.2188 25.392 49.1423 25.5371 49.0049C28.874 45.7667 32.0267 42.344 34.9805 38.7529C41.3174 30.9961 44.5312 24.792 44.5312 20.3125C44.5312 9.54297 35.7695 0.78125 25 0.78125ZM25 47.3486C21.9551 44.3594 7.03125 29.252 7.03125 20.3125C7.03125 10.4043 15.0918 2.34375 25 2.34375C34.9082 2.34375 42.9688 10.4043 42.9688 20.3125C42.9688 29.248 28.0449 44.3594 25 47.3486Z" fill="#002557"/>
<path d="M31.6641 16.5254L25.4141 12.6191C25.29 12.5411 25.1465 12.4998 25 12.4998C24.8535 12.4998 24.71 12.5411 24.5859 12.6191L18.3359 16.5254C18.2235 16.5955 18.1309 16.6931 18.0666 16.8089C18.0024 16.9247 17.9687 17.055 17.9688 17.1875V25.7812C17.9688 25.9885 18.0511 26.1872 18.1976 26.3337C18.3441 26.4802 18.5428 26.5625 18.75 26.5625H31.25C31.4572 26.5625 31.6559 26.4802 31.8024 26.3337C31.9489 26.1872 32.0312 25.9885 32.0312 25.7812V17.1875C32.0313 17.055 31.9976 16.9247 31.9334 16.8089C31.8691 16.6931 31.7765 16.5955 31.6641 16.5254ZM25.7812 25H24.2188V21.875H25.7812V25ZM30.4688 25H27.3438V21.0938C27.3438 20.8866 27.2614 20.6878 27.1149 20.5413C26.9684 20.3948 26.7697 20.3125 26.5625 20.3125H23.4375C23.2303 20.3125 23.0316 20.3948 22.8851 20.5413C22.7386 20.6878 22.6562 20.8866 22.6562 21.0938V25H19.5312V17.6201L25 14.2021L30.4688 17.6201V25Z" fill="#002557"/>
</svg>
