<svg width="50" height="50" viewBox="0 0 50 50" fill="none" xmlns="http://www.w3.org/2000/svg">
<g clip-path="url(#clip0_59_8518)">
<path d="M48.8047 21.1855L43.75 18.4893V1.5625C43.75 1.3553 43.6677 1.15659 43.5212 1.01007C43.3747 0.86356 43.1759 0.78125 42.9688 0.78125H7.03125C6.82405 0.78125 6.62534 0.86356 6.47882 1.01007C6.33231 1.15659 6.25 1.3553 6.25 1.5625V18.4893L1.19531 21.1855C1.07031 21.2522 0.965751 21.3515 0.892821 21.4729C0.819891 21.5944 0.781327 21.7333 0.78125 21.875V48.4375C0.78125 48.6447 0.86356 48.8434 1.01007 48.9899C1.15659 49.1364 1.3553 49.2188 1.5625 49.2188H48.4375C48.6447 49.2188 48.8434 49.1364 48.9899 48.9899C49.1364 48.8434 49.2188 48.6447 49.2188 48.4375V21.875C49.2187 21.7333 49.1801 21.5944 49.1072 21.4729C49.0342 21.3515 48.9297 21.2522 48.8047 21.1855ZM43.75 20.2598L46.7773 21.875L43.75 23.4902V20.2598ZM7.8125 2.34375H42.1875V24.3232L33.5938 28.9062L25 33.4893L7.8125 24.3232V2.34375ZM6.25 20.2598V23.4902L3.22266 21.875L6.25 20.2598ZM2.34375 47.6562V23.1768L16.1592 30.5459L3.51172 47.6562H2.34375ZM5.45508 47.6562L17.5527 31.2891L24.6328 35.0645C24.7458 35.1247 24.8719 35.1562 25 35.1562C25.1281 35.1562 25.2542 35.1247 25.3672 35.0645L32.4473 31.2891L44.5449 47.6562H5.45508ZM47.6562 47.6562H46.4883L33.8408 30.5459L47.6562 23.1768V47.6562Z" fill="#002557"/>
<path d="M5.45508 47.6562L17.5527 31.2891L24.6328 35.0645C24.7458 35.1247 24.8719 35.1562 25 35.1562C25.1281 35.1562 25.2542 35.1247 25.3672 35.0645L32.4473 31.2891L44.5449 47.6562H5.45508Z" fill="#D9D9D9"/>
<path d="M47.6562 47.6562H46.4883L33.8408 30.5459L47.6562 23.1768V47.6562Z" fill="#D9D9D9"/>
<path d="M2.34375 47.6562V23.1768L16.1592 30.5459L3.51172 47.6562H2.34375Z" fill="#D9D9D9"/>
<path d="M7.8125 2.34375H42.1875V24.3232L33.5938 28.9062L25 33.4893L7.8125 24.3232V2.34375Z" fill="#D9D9D9"/>
<path d="M43.75 20.2598L46.7773 21.875L43.75 23.4902V20.2598Z" fill="#D9D9D9"/>
<path d="M6.25 20.2598V23.4902L3.22266 21.875L6.25 20.2598Z" fill="#D9D9D9"/>
<path d="M14.8438 15.625C14.8468 18.3177 15.9178 20.8992 17.8218 22.8032C19.7258 24.7072 22.3073 25.7782 25 25.7812C25.2072 25.7812 25.4059 25.6989 25.5524 25.5524C25.6989 25.4059 25.7812 25.2072 25.7812 25C25.7812 24.7928 25.6989 24.5941 25.5524 24.4476C25.4059 24.3011 25.2072 24.2188 25 24.2188C23.3003 24.2188 21.6388 23.7147 20.2256 22.7704C18.8123 21.8261 17.7109 20.484 17.0604 18.9137C16.41 17.3434 16.2398 15.6155 16.5714 13.9484C16.903 12.2814 17.7214 10.7502 18.9233 9.5483C20.1252 8.34644 21.6564 7.52797 23.3234 7.19638C24.9905 6.86478 26.7184 7.03497 28.2887 7.68541C29.859 8.33585 31.2011 9.43733 32.1454 10.8506C33.0897 12.2638 33.5938 13.9253 33.5938 15.625V17.1875C33.5938 17.4947 33.1568 19.5312 31.25 19.5312C30.0747 19.5312 29.6897 16.899 29.6875 15.6243V15.6237C29.6869 12.6089 27.5843 10.1562 25 10.1562C22.4157 10.1562 20.3125 12.6096 20.3125 15.625C20.3125 18.6404 22.4153 21.0938 25 21.0938C26.5012 21.0938 27.8388 20.2652 28.6973 18.9807C29.3568 20.7038 30.4218 21.0938 31.25 21.0938C33.9767 21.0938 35.1562 18.507 35.1562 17.1875V15.625C35.1562 12.9314 34.0862 10.3481 32.1816 8.44345C30.2769 6.53878 27.6936 5.46875 25 5.46875C22.3064 5.46875 19.7231 6.53878 17.8184 8.44345C15.9138 10.3481 14.8438 12.9314 14.8438 15.625ZM25 19.5312C23.2769 19.5312 21.875 17.7789 21.875 15.625C21.875 13.4711 23.2769 11.7188 25 11.7188C26.7231 11.7188 28.125 13.4711 28.125 15.625C28.125 17.7789 26.7231 19.5312 25 19.5312Z" fill="#002557"/>
<path d="M9.375 4.6875H15.625C15.8322 4.6875 16.0309 4.60519 16.1774 4.45868C16.3239 4.31216 16.4062 4.11345 16.4062 3.90625C16.4062 3.69905 16.3239 3.50034 16.1774 3.35382C16.0309 3.20731 15.8322 3.125 15.625 3.125H9.375C9.1678 3.125 8.96909 3.20731 8.82257 3.35382C8.67606 3.50034 8.59375 3.69905 8.59375 3.90625C8.59375 4.11345 8.67606 4.31216 8.82257 4.45868C8.96909 4.60519 9.1678 4.6875 9.375 4.6875Z" fill="#002557"/>
<path d="M17.9688 4.6875H18.75C18.9572 4.6875 19.1559 4.60519 19.3024 4.45868C19.4489 4.31216 19.5312 4.11345 19.5312 3.90625C19.5312 3.69905 19.4489 3.50034 19.3024 3.35382C19.1559 3.20731 18.9572 3.125 18.75 3.125H17.9688C17.7615 3.125 17.5628 3.20731 17.4163 3.35382C17.2698 3.50034 17.1875 3.69905 17.1875 3.90625C17.1875 4.11345 17.2698 4.31216 17.4163 4.45868C17.5628 4.60519 17.7615 4.6875 17.9688 4.6875Z" fill="#002557"/>
</g>
<defs>
<clipPath id="clip0_59_8518">
<rect width="50" height="50" fill="white"/>
</clipPath>
</defs>
</svg>
