<svg width="23" height="24" viewBox="0 0 23 24" fill="none" xmlns="http://www.w3.org/2000/svg">
<g clip-path="url(#clip0_58_924)">
<path fill-rule="evenodd" clip-rule="evenodd" d="M11.5 0.855864C17.8513 0.855864 23 6.00454 23 12.3559C23 18.7072 17.8513 23.8559 11.5 23.8559C5.14868 23.8559 0 18.7073 0 12.3559C0 6.0044 5.14881 0.855864 11.5 0.855864ZM4.4248 16.4068C4.4248 16.4119 4.42539 16.4166 4.42548 16.4215L9.25858 12.6562L4.4248 8.37345V16.4068ZM13.7416 12.6562L18.5746 16.4215C18.5746 16.4166 18.5754 16.4119 18.5754 16.4068V8.37345L13.7416 12.6562ZM10.0282 13.3379L5.37495 16.9631H17.6253L12.972 13.3379L11.8352 14.3451C11.7427 14.427 11.6235 14.4722 11.5 14.4722C11.3766 14.4722 11.2574 14.427 11.1649 14.3451L10.0282 13.3379ZM11.5 13.2916L17.7564 7.74859H5.2436L11.5 13.2916Z" fill="#EAEAEA"/>
<path d="M11.5 13.2916L17.7564 7.74859H5.2436L11.5 13.2916Z" fill="#002557"/>
<path d="M13.7416 12.6562L18.5746 16.4215C18.5746 16.4166 18.5754 16.4119 18.5754 16.4068V8.37345L13.7416 12.6562Z" fill="#002557"/>
<path d="M10.0282 13.3379L5.37495 16.9631H17.6253L12.972 13.3379L11.8352 14.3451C11.7427 14.427 11.6235 14.4722 11.5 14.4722C11.3766 14.4722 11.2574 14.427 11.1649 14.3451L10.0282 13.3379Z" fill="#002557"/>
<path d="M4.4248 16.4068C4.4248 16.4119 4.42539 16.4166 4.42548 16.4215L9.25858 12.6562L4.4248 8.37345V16.4068Z" fill="#002557"/>
<circle cx="11.5" cy="12.3559" r="11" stroke="#002557"/>
</g>
<defs>
<clipPath id="clip0_58_924">
<rect width="23" height="23" fill="white" transform="translate(0 0.855864)"/>
</clipPath>
</defs>
</svg>
