<svg width="24" height="24" viewBox="0 0 24 24" fill="none" xmlns="http://www.w3.org/2000/svg">
<g clip-path="url(#clip0_104_1018)">
<path fill-rule="evenodd" clip-rule="evenodd" d="M12 24C5.37364 24 0 18.6264 0 12C0 5.37364 5.37364 0 12 0C18.6264 0 24 5.37364 24 12C24 18.6264 18.6264 24 12 24ZM12 4.19471C15.2827 4.19471 17.9438 6.85578 17.9438 10.1385C17.9438 13.4211 12 19.8052 12 19.8052C12 19.8052 6.05622 13.4211 6.05622 10.1385C6.05622 6.85578 8.71729 4.19471 12 4.19471ZM12 7.77695C13.2446 7.77695 14.2539 8.78627 14.2539 10.031C14.2539 11.2756 13.2446 12.2849 12 12.2849C10.7554 12.2849 9.74608 11.2756 9.74608 10.031C9.74608 8.78627 10.7554 7.77695 12 7.77695Z" fill="#D9D9D9"/>
<path fill-rule="evenodd" clip-rule="evenodd" d="M12 4.19471C15.2827 4.19471 17.9438 6.85578 17.9438 10.1385C17.9438 13.4211 12 19.8052 12 19.8052C12 19.8052 6.05622 13.4211 6.05622 10.1385C6.05622 6.85578 8.71729 4.19471 12 4.19471ZM14.2539 10.031C14.2539 8.78627 13.2446 7.77695 12 7.77695C10.7554 7.77695 9.74608 8.78627 9.74608 10.031C9.74608 11.2756 10.7554 12.2849 12 12.2849C13.2446 12.2849 14.2539 11.2756 14.2539 10.031Z" fill="#002557"/>
<circle cx="12" cy="12" r="11.5" stroke="#002557"/>
</g>
<defs>
<clipPath id="clip0_104_1018">
<rect width="24" height="24" fill="white"/>
</clipPath>
</defs>
</svg>
