<svg width="29" height="29" viewBox="0 0 29 29" fill="none" xmlns="http://www.w3.org/2000/svg">
<circle cx="14.5" cy="14.5" r="14.1375" fill="#D9D9D9" stroke="#002557" stroke-width="0.725"/>
<path d="M11.1816 11.6594H8.17383V20.6919H11.1816V11.6594Z" fill="#002557"/>
<path d="M21.0522 12.4843C20.4204 11.7946 19.5848 11.4497 18.5458 11.4497C18.163 11.4497 17.815 11.4968 17.502 11.591C17.1891 11.6852 16.9249 11.8173 16.7091 11.9875C16.4934 12.1577 16.3217 12.3156 16.1942 12.4614C16.0729 12.5999 15.9544 12.7611 15.8387 12.9436V11.6592H12.8398L12.849 12.0968C12.8552 12.3885 12.8582 13.2878 12.8582 14.7946C12.8582 16.3016 12.8522 18.2673 12.84 20.6918H15.8387V15.6513C15.8387 15.3415 15.8719 15.0955 15.9389 14.913C16.0666 14.603 16.2593 14.3434 16.5177 14.1338C16.7761 13.924 17.0965 13.8192 17.4794 13.8192C18.0018 13.8192 18.3863 14 18.6324 14.3615C18.8785 14.723 19.0015 15.2228 19.0015 15.8609V20.6915H22.0002V15.5147C22 14.1839 21.6842 13.1738 21.0522 12.4843Z" fill="#002557"/>
<path d="M9.69577 7.31152C9.19149 7.31152 8.78289 7.45898 8.46987 7.75361C8.15689 8.04831 8.00049 8.42036 8.00049 8.87011C8.00049 9.31357 8.15238 9.68434 8.45621 9.98201C8.75994 10.2797 9.16104 10.4286 9.65928 10.4286H9.67751C10.188 10.4286 10.5997 10.2798 10.9126 9.98201C11.2255 9.68434 11.3789 9.3137 11.3729 8.87011C11.3668 8.42039 11.2117 8.04831 10.908 7.75361C10.6043 7.45885 10.2001 7.31152 9.69577 7.31152Z" fill="#002557"/>
</svg>
