<svg width="29" height="29" viewBox="0 0 29 29" fill="none" xmlns="http://www.w3.org/2000/svg">
<circle cx="14.5" cy="14.5" r="14" stroke="#002557"/>
<g clip-path="url(#clip0_58_913)">
<path d="M11.1811 11.6576H8.17334V20.6901H11.1811V11.6576Z" fill="#002557"/>
<path d="M21.0522 12.4827C20.4204 11.793 19.5848 11.4481 18.5458 11.4481C18.163 11.4481 17.815 11.4952 17.502 11.5894C17.1891 11.6836 16.9249 11.8157 16.7091 11.9859C16.4934 12.156 16.3217 12.314 16.1942 12.4598C16.0729 12.5982 15.9544 12.7595 15.8387 12.9419V11.6576H12.8398L12.849 12.0951C12.8552 12.3869 12.8582 13.2861 12.8582 14.793C12.8582 16.3 12.8522 18.2656 12.84 20.6901H15.8387V15.6497C15.8387 15.3399 15.8719 15.0938 15.9389 14.9114C16.0666 14.6013 16.2593 14.3417 16.5177 14.1322C16.7761 13.9224 17.0965 13.8176 17.4794 13.8176C18.0018 13.8176 18.3863 13.9983 18.6324 14.3599C18.8785 14.7214 19.0015 15.2212 19.0015 15.8592V20.6899H22.0002V15.5131C22 14.1822 21.6842 13.1722 21.0522 12.4827Z" fill="#002557"/>
<path d="M9.69528 7.30992C9.191 7.30992 8.7824 7.45738 8.46938 7.75201C8.1564 8.04671 8 8.41876 8 8.86851C8 9.31197 8.1519 9.68274 8.45572 9.98041C8.75945 10.2781 9.16055 10.427 9.65879 10.427H9.67702C10.1875 10.427 10.5992 10.2782 10.9121 9.98041C11.225 9.68274 11.3784 9.3121 11.3724 8.86851C11.3663 8.41879 11.2112 8.04671 10.9075 7.75201C10.6038 7.45725 10.1996 7.30992 9.69528 7.30992Z" fill="#002557"/>
</g>
<defs>
<clipPath id="clip0_58_913">
<rect width="14" height="14" fill="white" transform="translate(8 7)"/>
</clipPath>
</defs>
</svg>
