<svg width="50" height="50" viewBox="0 0 50 50" fill="none" xmlns="http://www.w3.org/2000/svg">
<g clip-path="url(#clip0_59_8509)">
<path d="M40.377 39.1739L33.0694 31.8662C32.4832 31.2803 31.6883 30.9512 30.8594 30.9512C30.0306 30.9512 29.2357 31.2803 28.6495 31.8662L22.5284 37.9883C22.3293 38.1878 22.0799 38.3296 21.8067 38.3987C21.5334 38.4679 21.2466 38.4617 20.9766 38.3809C18.7413 37.7107 16.7072 36.4961 15.057 34.846C13.4068 33.196 12.1919 31.1621 11.5215 28.9268C11.4409 28.6566 11.4348 28.3697 11.5039 28.0963C11.573 27.823 11.7148 27.5734 11.9141 27.3741L18.0362 21.253C18.6209 20.6661 18.9493 19.8714 18.9493 19.043C18.9493 18.2146 18.6209 17.4199 18.0362 16.833L10.7286 9.52542C10.417 9.21409 10.0434 8.97195 9.63196 8.81478C9.22054 8.65762 8.78061 8.58897 8.34087 8.61331C7.90579 8.63687 7.48056 8.75184 7.09288 8.95072C6.7052 9.14961 6.36378 9.42795 6.09087 9.76761C5.69243 10.2647 5.30962 10.7842 4.9522 11.3106C4.95122 11.3106 4.95122 11.3106 4.95122 11.3116C1.79253 15.9731 0.356611 21.5894 0.890345 27.195C1.42408 32.8005 3.89412 38.045 7.87577 42.0266C11.8574 46.0083 17.1019 48.4783 22.7074 49.0121C28.313 49.5458 33.9293 48.1099 38.5909 44.9512C39.1172 44.5928 39.6377 44.21 40.1348 43.8116C40.4744 43.5385 40.7528 43.1971 40.9518 42.8095C41.1509 42.4218 41.2661 41.9966 41.2901 41.5616C41.3139 41.1218 41.245 40.6819 41.0876 40.2705C40.9303 39.8592 40.6882 39.4855 40.377 39.1739ZM7.31059 10.7442C7.44512 10.5751 7.6142 10.4366 7.80653 10.3381C7.99885 10.2396 8.20999 10.1833 8.42583 10.1729C8.64637 10.1608 8.86697 10.1954 9.07326 10.2743C9.27954 10.3532 9.46689 10.4747 9.62309 10.6309L16.9307 17.9385C17.2234 18.2316 17.3878 18.6288 17.3878 19.043C17.3878 19.4572 17.2234 19.8544 16.9307 20.1475L16.0157 21.0635L6.61333 11.6612C6.83794 11.3496 7.07134 11.043 7.31059 10.7442ZM25 47.5586C20.9651 47.5577 17.0035 46.4794 13.5247 44.4352C10.0459 42.3911 7.17591 39.4551 5.21133 35.9307C3.24675 32.4063 2.25881 28.4213 2.34956 24.3874C2.44032 20.3534 3.60649 16.4169 5.72759 12.9844L14.9112 22.168L10.8096 26.2696C10.4108 26.6678 10.1272 27.1666 9.9888 27.713C9.85041 28.2593 9.86239 28.833 10.0235 29.3731C10.7679 31.8572 12.1175 34.1175 13.9512 35.9512C15.7849 37.7849 18.0453 39.1345 20.5293 39.8789C21.0694 40.0403 21.6431 40.0524 22.1895 39.914C22.736 39.7755 23.2347 39.4918 23.6329 39.0928L27.7344 34.9912L36.918 44.1748C33.3394 46.3938 29.2108 47.566 25 47.5586ZM39.7295 41.4756C39.7193 41.6916 39.663 41.9029 39.5645 42.0954C39.466 42.2879 39.3275 42.4572 39.1582 42.5918C38.8594 42.8311 38.5528 43.0645 38.2413 43.2891L28.8389 33.8867L29.7549 32.9717C29.8999 32.8265 30.0721 32.7113 30.2616 32.6327C30.4511 32.5541 30.6543 32.5137 30.8594 32.5137C31.0646 32.5137 31.2677 32.5541 31.4573 32.6327C31.6468 32.7113 31.819 32.8265 31.9639 32.9717L39.2715 40.2793C39.4276 40.4354 39.549 40.6226 39.6279 40.8287C39.7069 41.0348 39.7415 41.2552 39.7295 41.4756Z" fill="#002557"/>
<path d="M25 47.5586C20.9651 47.5577 17.0035 46.4794 13.5247 44.4352C10.0459 42.3911 7.17591 39.4551 5.21133 35.9307C3.24675 32.4063 2.25881 28.4213 2.34956 24.3874C2.44032 20.3534 3.60649 16.4169 5.72759 12.9844L14.9112 22.168L10.8096 26.2696C10.4108 26.6678 10.1272 27.1666 9.9888 27.713C9.85041 28.2593 9.86239 28.833 10.0235 29.3731C10.7679 31.8572 12.1175 34.1175 13.9512 35.9512C15.7849 37.7849 18.0453 39.1345 20.5293 39.8789C21.0694 40.0403 21.6431 40.0524 22.1895 39.914C22.736 39.7755 23.2347 39.4918 23.6329 39.0928L27.7344 34.9912L36.918 44.1748C33.3394 46.3938 29.2108 47.566 25 47.5586Z" fill="#D9D9D9"/>
<path d="M39.7295 41.4756C39.7193 41.6916 39.663 41.9029 39.5645 42.0954C39.466 42.2879 39.3275 42.4572 39.1582 42.5918C38.8594 42.8311 38.5528 43.0645 38.2413 43.2891L28.8389 33.8867L29.7549 32.9717C29.8999 32.8265 30.0721 32.7113 30.2616 32.6327C30.4511 32.5541 30.6543 32.5137 30.8594 32.5137C31.0646 32.5137 31.2677 32.5541 31.4573 32.6327C31.6468 32.7113 31.819 32.8265 31.9639 32.9717L39.2715 40.2793C39.4276 40.4354 39.549 40.6226 39.6279 40.8287C39.7069 41.0348 39.7415 41.2552 39.7295 41.4756Z" fill="#D9D9D9"/>
<path d="M7.31059 10.7442C7.44512 10.5751 7.6142 10.4366 7.80653 10.3381C7.99885 10.2396 8.20999 10.1833 8.42583 10.1729C8.64637 10.1608 8.86697 10.1954 9.07326 10.2743C9.27954 10.3532 9.46689 10.4747 9.62309 10.6309L16.9307 17.9385C17.2234 18.2316 17.3878 18.6288 17.3878 19.043C17.3878 19.4572 17.2234 19.8544 16.9307 20.1475L16.0157 21.0635L6.61333 11.6612C6.83794 11.3496 7.07134 11.043 7.31059 10.7442Z" fill="#D9D9D9"/>
<path d="M49.2013 3.51279C49.1995 2.78839 48.9108 2.0942 48.3983 1.58224C47.8858 1.07027 47.1913 0.782255 46.4669 0.78125H26.9531C26.2282 0.782077 25.5332 1.07043 25.0205 1.58304C24.5079 2.09566 24.2196 2.79068 24.2188 3.51562V15.2344C24.2196 15.9593 24.5079 16.6543 25.0205 17.167C25.5332 17.6796 26.2282 17.9679 26.9531 17.9688H28.9062V21.875C28.9062 22.0295 28.9521 22.1806 29.0379 22.3091C29.1237 22.4375 29.2458 22.5377 29.3885 22.5968C29.5313 22.6559 29.6884 22.6714 29.8399 22.6413C29.9915 22.6111 30.1307 22.5367 30.2399 22.4274L34.6985 17.9688H46.4823C46.8417 17.9688 47.1975 17.8979 47.5294 17.7603C47.8614 17.6227 48.1629 17.421 48.4169 17.1668C48.6708 16.9126 48.8722 16.6108 49.0094 16.2787C49.1467 15.9466 49.2171 15.5907 49.2167 15.2313L49.2013 3.51279ZM47.3114 16.0625C47.2029 16.1718 47.0737 16.2585 46.9313 16.3175C46.789 16.3765 46.6364 16.4067 46.4823 16.4062H34.375C34.2724 16.4062 34.1708 16.4265 34.076 16.4657C33.9812 16.505 33.8951 16.5625 33.8226 16.6351L30.4688 19.989V17.1875C30.4688 16.9803 30.3864 16.7816 30.2399 16.6351C30.0934 16.4886 29.8947 16.4062 29.6875 16.4062H26.9531C26.6424 16.4059 26.3446 16.2823 26.1249 16.0626C25.9052 15.8429 25.7816 15.5451 25.7812 15.2344V3.51562C25.7816 3.20493 25.9052 2.90705 26.1249 2.68736C26.3446 2.46766 26.6424 2.34409 26.9531 2.34375H46.4669C46.7774 2.34419 47.0751 2.46766 47.2947 2.68712C47.5144 2.90659 47.6381 3.20415 47.6388 3.51465L47.6542 15.2334C47.6548 15.3874 47.6248 15.54 47.5659 15.6823C47.5071 15.8246 47.4206 15.9539 47.3114 16.0625Z" fill="#002557"/>
<path d="M47.3114 16.0625C47.2029 16.1718 47.0737 16.2585 46.9313 16.3175C46.789 16.3765 46.6364 16.4067 46.4823 16.4062H34.375C34.2724 16.4062 34.1708 16.4265 34.076 16.4657C33.9812 16.505 33.8951 16.5625 33.8226 16.6351L30.4688 19.989V17.1875C30.4688 16.9803 30.3864 16.7816 30.2399 16.6351C30.0934 16.4886 29.8947 16.4062 29.6875 16.4062H26.9531C26.6424 16.4059 26.3446 16.2823 26.1249 16.0626C25.9052 15.8429 25.7816 15.5451 25.7812 15.2344V3.51562C25.7816 3.20493 25.9052 2.90705 26.1249 2.68736C26.3446 2.46766 26.6424 2.34409 26.9531 2.34375H46.4669C46.7774 2.34419 47.0751 2.46766 47.2947 2.68712C47.5144 2.90659 47.6381 3.20415 47.6388 3.51465L47.6542 15.2334C47.6548 15.3874 47.6248 15.54 47.5659 15.6823C47.5071 15.8246 47.4206 15.9539 47.3114 16.0625Z" fill="#D9D9D9"/>
<path d="M45.3125 3.90625H28.125C27.9178 3.90625 27.7191 3.98856 27.5726 4.13507C27.4261 4.28159 27.3438 4.4803 27.3438 4.6875C27.3438 4.8947 27.4261 5.09341 27.5726 5.23993C27.7191 5.38644 27.9178 5.46875 28.125 5.46875H45.3125C45.5197 5.46875 45.7184 5.38644 45.8649 5.23993C46.0114 5.09341 46.0938 4.8947 46.0938 4.6875C46.0938 4.4803 46.0114 4.28159 45.8649 4.13507C45.7184 3.98856 45.5197 3.90625 45.3125 3.90625Z" fill="#002557"/>
<path d="M45.3125 10.1562H28.125C27.9178 10.1562 27.7191 10.2386 27.5726 10.3851C27.4261 10.5316 27.3438 10.7303 27.3438 10.9375C27.3438 11.1447 27.4261 11.3434 27.5726 11.4899C27.7191 11.6364 27.9178 11.7188 28.125 11.7188H45.3125C45.5197 11.7188 45.7184 11.6364 45.8649 11.4899C46.0114 11.3434 46.0938 11.1447 46.0938 10.9375C46.0938 10.7303 46.0114 10.5316 45.8649 10.3851C45.7184 10.2386 45.5197 10.1562 45.3125 10.1562Z" fill="#002557"/>
<path d="M34.375 13.2812H28.125C27.9178 13.2812 27.7191 13.3636 27.5726 13.5101C27.4261 13.6566 27.3438 13.8553 27.3438 14.0625C27.3438 14.2697 27.4261 14.4684 27.5726 14.6149C27.7191 14.7614 27.9178 14.8438 28.125 14.8438H34.375C34.5822 14.8438 34.7809 14.7614 34.9274 14.6149C35.0739 14.4684 35.1562 14.2697 35.1562 14.0625C35.1562 13.8553 35.0739 13.6566 34.9274 13.5101C34.7809 13.3636 34.5822 13.2812 34.375 13.2812Z" fill="#002557"/>
<path d="M37.5 13.2812H36.7188C36.5115 13.2812 36.3128 13.3636 36.1663 13.5101C36.0198 13.6566 35.9375 13.8553 35.9375 14.0625C35.9375 14.2697 36.0198 14.4684 36.1663 14.6149C36.3128 14.7614 36.5115 14.8438 36.7188 14.8438H37.5C37.7072 14.8438 37.9059 14.7614 38.0524 14.6149C38.1989 14.4684 38.2812 14.2697 38.2812 14.0625C38.2812 13.8553 38.1989 13.6566 38.0524 13.5101C37.9059 13.3636 37.7072 13.2812 37.5 13.2812Z" fill="#002557"/>
<path d="M45.3125 7.03125H28.125C27.9178 7.03125 27.7191 7.11356 27.5726 7.26007C27.4261 7.40659 27.3438 7.6053 27.3438 7.8125C27.3438 8.0197 27.4261 8.21841 27.5726 8.36493C27.7191 8.51144 27.9178 8.59375 28.125 8.59375H45.3125C45.5197 8.59375 45.7184 8.51144 45.8649 8.36493C46.0114 8.21841 46.0938 8.0197 46.0938 7.8125C46.0938 7.6053 46.0114 7.40659 45.8649 7.26007C45.7184 7.11356 45.5197 7.03125 45.3125 7.03125Z" fill="#002557"/>
</g>
<defs>
<clipPath id="clip0_59_8509">
<rect width="50" height="50" fill="white"/>
</clipPath>
</defs>
</svg>
