<svg width="23" height="25" viewBox="0 0 23 25" fill="none" xmlns="http://www.w3.org/2000/svg">
<path d="M19.6305 4.22291C15.1388 -0.267436 7.85739 -0.266357 3.36705 4.22538C-1.1233 8.71712 -1.12222 15.9985 3.36952 20.4888C7.86125 24.9792 15.1426 24.9781 19.633 20.4864C21.7895 18.3292 23.0007 15.4036 23 12.3534C22.9994 9.30366 21.7873 6.37907 19.6305 4.22291ZM17.4164 16.8752C17.4159 16.8757 17.4154 16.8763 17.4148 16.8768V16.873L16.8321 17.4518C16.0786 18.2149 14.9811 18.5288 13.938 18.2798C12.887 17.9985 11.888 17.5507 10.9787 16.9535C10.1339 16.4135 9.35095 15.7824 8.64415 15.0713C7.99382 14.4257 7.40956 13.7168 6.89997 12.9553C6.34258 12.1358 5.9014 11.2431 5.58897 10.3026C5.23081 9.19769 5.52761 7.9853 6.35565 7.17077L7.03797 6.48845C7.22768 6.2979 7.53593 6.29722 7.72644 6.48693C7.72694 6.48742 7.72748 6.48792 7.72797 6.48845L9.88229 8.64277C10.0728 8.83248 10.0735 9.14073 9.88382 9.33124C9.88332 9.33174 9.88283 9.33223 9.88229 9.33277L8.61729 10.5978C8.25432 10.9568 8.20868 11.5273 8.50997 11.9395C8.9675 12.5674 9.47381 13.1582 10.0242 13.7066C10.6377 14.3229 11.3048 14.8835 12.0175 15.3818C12.4293 15.669 12.9876 15.6206 13.3438 15.2668L14.5666 14.0248C14.7563 13.8343 15.0646 13.8336 15.2551 14.0233C15.2556 14.0238 15.2561 14.0243 15.2566 14.0248L17.4148 16.1868C17.6054 16.3765 17.6061 16.6847 17.4164 16.8752Z" fill="#EAEAEA"/>
<path d="M17.4164 16.8752C17.4159 16.8757 17.4154 16.8763 17.4148 16.8768V16.873L16.8321 17.4518C16.0786 18.2149 14.9811 18.5288 13.938 18.2798C12.887 17.9985 11.888 17.5507 10.9787 16.9535C10.1339 16.4135 9.35095 15.7824 8.64415 15.0713C7.99382 14.4257 7.40956 13.7168 6.89997 12.9553C6.34258 12.1358 5.9014 11.2431 5.58897 10.3026C5.23081 9.19769 5.52761 7.9853 6.35565 7.17077L7.03797 6.48845C7.22768 6.2979 7.53593 6.29722 7.72644 6.48693C7.72694 6.48742 7.72748 6.48792 7.72797 6.48845L9.88229 8.64277C10.0728 8.83248 10.0735 9.14073 9.88382 9.33124C9.88332 9.33174 9.88283 9.33223 9.88229 9.33277L8.61729 10.5978C8.25432 10.9568 8.20868 11.5273 8.50997 11.9395C8.9675 12.5674 9.47381 13.1582 10.0242 13.7066C10.6377 14.3229 11.3048 14.8835 12.0175 15.3818C12.4293 15.669 12.9876 15.6206 13.3438 15.2668L14.5666 14.0248C14.7563 13.8343 15.0646 13.8336 15.2551 14.0233C15.2556 14.0238 15.2561 14.0243 15.2566 14.0248L17.4148 16.1868C17.6054 16.3765 17.6061 16.6847 17.4164 16.8752Z" fill="#002557"/>
<path d="M22.5 12.5547C22.5 18.6829 17.5715 23.6441 11.5 23.6441C5.42851 23.6441 0.5 18.6829 0.5 12.5547C0.5 6.42649 5.42851 1.46524 11.5 1.46524C17.5715 1.46524 22.5 6.42649 22.5 12.5547Z" stroke="#002557"/>
</svg>
