<svg width="29" height="29" viewBox="0 0 29 29" fill="none" xmlns="http://www.w3.org/2000/svg">
<circle cx="14.5" cy="14.5" r="14.1375" fill="#D9D9D9" stroke="#002557" stroke-width="0.725"/>
<path d="M22.001 10.4209C21.4432 10.6618 20.8488 10.8215 20.2291 10.899C20.8666 10.5242 21.3532 9.93532 21.5819 9.22547C20.9875 9.5744 20.3313 9.82086 19.6319 9.9584C19.0675 9.36671 18.2632 9.00024 17.3857 9.00024C15.6832 9.00024 14.3125 10.3609 14.3125 12.0289C14.3125 12.2689 14.3332 12.4996 14.3838 12.7193C11.8272 12.5966 9.56504 11.3901 8.04535 9.55224C7.78004 10.0055 7.62441 10.5242 7.62441 11.0827C7.62441 12.1313 8.17285 13.0609 8.99035 13.599C8.49629 13.5898 8.0116 13.4486 7.60098 13.2261C7.60098 13.2353 7.60098 13.2473 7.60098 13.2593C7.60098 14.7307 8.66691 15.9529 10.0647 16.2344C9.81441 16.3018 9.5416 16.3341 9.25848 16.3341C9.0616 16.3341 8.86285 16.323 8.67629 16.2824C9.07473 17.4815 10.2054 18.363 11.5497 18.3916C10.5035 19.1975 9.17504 19.683 7.73691 19.683C7.48473 19.683 7.24285 19.6719 7.00098 19.6415C8.36316 20.5064 9.97754 21.0002 11.7185 21.0002C17.3772 21.0002 20.471 16.3849 20.471 12.3842C20.471 12.2504 20.4663 12.1212 20.4597 11.9929C21.07 11.5664 21.5829 11.0338 22.001 10.4209Z" fill="#002557"/>
</svg>
